<svg xmlns="http://www.w3.org/2000/svg" xmlns:xlink="http://www.w3.org/1999/xlink" width="84" height="76" viewBox="0 0 84 76">
  <defs>
    <clipPath id="clip-path">
      <rect id="Rectangle_47" data-name="Rectangle 47" width="45" height="56" transform="translate(-0.374 -0.472)" fill="none" stroke="#8fe83d" stroke-width="1"/>
    </clipPath>
  </defs>
  <g id="Group_121" data-name="Group 121" transform="translate(-278 -1892)">
    <text id="_45_Sekunden" data-name="45 Sekunden" transform="translate(278 1956)" fill="#8fe83d" font-size="10" font-family="HelveticaNeueLTPro-Md, Helvetica Neue LT Pro" font-weight="500" letter-spacing="0.1em"><tspan x="-39.355" y="10">45 SEKUNDEN</tspan></text>
    <g id="Group_17" data-name="Group 17" transform="translate(298.374 1892.472)">
      <g id="Group_16" data-name="Group 16" transform="translate(0 0)" clip-path="url(#clip-path)">
        <path id="Path_180" data-name="Path 180" d="M0-1H39.812" transform="translate(2.731 3.747)" fill="none" stroke="#8fe83d" stroke-linecap="round" stroke-width="2"/>
        <line id="Line_6" data-name="Line 6" x2="40" transform="translate(2.626 53.528)" fill="none" stroke="#8fe83d" stroke-linecap="round" stroke-linejoin="round" stroke-width="2"/>
        <path id="Path_21" data-name="Path 21" d="M12,4V15.1A13.871,13.871,0,0,0,25.871,28.968,13.871,13.871,0,0,1,39.743,42.84v11.1" transform="translate(-3.053 -0.814)" fill="none" stroke="#8fe83d" stroke-linecap="round" stroke-linejoin="round" stroke-width="2"/>
        <path id="Path_22" data-name="Path 22" d="M39.743,4V15.1A13.871,13.871,0,0,1,25.871,28.968,13.871,13.871,0,0,0,12,42.84v11.1" transform="translate(-3.053 -0.814)" fill="none" stroke="#8fe83d" stroke-linecap="round" stroke-linejoin="round" stroke-width="2"/>
        <path id="Path_23" data-name="Path 23" d="M24,20a5.549,5.549,0,0,0,5.549,5.549" transform="translate(-6.73 -5.717)" fill="none" stroke="#8fe83d" stroke-linecap="round" stroke-linejoin="round" stroke-width="2"/>
        <path id="Path_24" data-name="Path 24" d="M37.549,57.549A5.549,5.549,0,0,0,32,52" transform="translate(-9.181 -15.523)" fill="none" stroke="#8fe83d" stroke-linecap="round" stroke-linejoin="round" stroke-width="2"/>
      </g>
    </g>
  </g>
</svg>
