<svg xmlns="http://www.w3.org/2000/svg" xmlns:xlink="http://www.w3.org/1999/xlink" width="76" height="72" viewBox="0 0 76 72">
  <defs>
    <clipPath id="clip-path">
      <rect id="Rectangle_44" data-name="Rectangle 44" width="56" height="52" transform="translate(-0.312 0.281)" fill="none" stroke="#8fe83d" stroke-width="1"/>
    </clipPath>
  </defs>
  <g id="Group_119" data-name="Group 119" transform="translate(-69 -1896)">
    <text id="Immobilie" transform="translate(69 1956)" fill="#8fe83d" font-size="10" font-family="HelveticaNeueLTPro-Roman, Helvetica Neue LT Pro" letter-spacing="0.1em"><tspan x="-29.655" y="10">IMMOBILIE</tspan></text>
    <g id="Group_13" data-name="Group 13" transform="translate(80.312 1895.719)">
      <g id="Group_12" data-name="Group 12" transform="translate(0 0)" clip-path="url(#clip-path)">
        <path id="Path_18" data-name="Path 18" d="M50.84,28.88V56.012a2.774,2.774,0,0,1-2.774,2.774H42.517a2.774,2.774,0,0,1-2.774-2.774V50.464a5.549,5.549,0,0,0-5.549-5.549H28.646A5.549,5.549,0,0,0,23.1,50.464v5.549a2.774,2.774,0,0,1-2.774,2.774H14.774A2.774,2.774,0,0,1,12,56.012V28.88" transform="translate(-3.57 -8.911)" fill="none" stroke="#8fe83d" stroke-linecap="round" stroke-linejoin="round" stroke-width="2"/>
        <path id="Path_19" data-name="Path 19" d="M4,26.193,25.282,5.531a5.2,5.2,0,0,1,7.373,0L53.937,26.193" transform="translate(-1.119 -1.287)" fill="none" stroke="#8fe83d" stroke-linecap="round" stroke-linejoin="round" stroke-width="2"/>
      </g>
    </g>
  </g>
</svg>
