<?xml version="1.0" encoding="UTF-8" standalone="no"?>
<svg
   width="75"
   height="75"
   viewBox="0 0 75 75"
   version="1.1"
   id="svg14"
   sodipodi:docname="icon1.svg"
   inkscape:version="1.1.2 (b8e25be833, 2022-02-05)"
   xmlns:inkscape="http://www.inkscape.org/namespaces/inkscape"
   xmlns:sodipodi="http://sodipodi.sourceforge.net/DTD/sodipodi-0.dtd"
   xmlns="http://www.w3.org/2000/svg"
   xmlns:svg="http://www.w3.org/2000/svg">
  <sodipodi:namedview
     id="namedview16"
     pagecolor="#ffffff"
     bordercolor="#666666"
     borderopacity="1.0"
     inkscape:pageshadow="2"
     inkscape:pageopacity="0.0"
     inkscape:pagecheckerboard="0"
     showgrid="false"
     inkscape:zoom="11.222222"
     inkscape:cx="42.326734"
     inkscape:cy="38.584159"
     inkscape:window-width="1465"
     inkscape:window-height="1030"
     inkscape:window-x="304"
     inkscape:window-y="26"
     inkscape:window-maximized="0"
     inkscape:current-layer="Group_119"
     width="80px"
     height="75px" />
  <defs
     id="defs4">
    <clipPath
       id="clip-path">
      <rect
         id="Rectangle_44"
         data-name="Rectangle 44"
         width="56"
         height="52"
         transform="translate(-0.312,0.281)"
         fill="none"
         stroke="#8fe83d"
         stroke-width="1"
         x="0"
         y="0" />
    </clipPath>
  </defs>
  <g
     id="Group_119"
     data-name="Group 119"
     transform="translate(-69,-1896)">
    <text
       id="Immobilie"
       fill="#8fe83d"
       font-size="10.5212px"
       font-family="HelveticaNeueLTPro-Roman, 'Helvetica Neue LT Pro'"
       letter-spacing="0.1em"
       x="98.262726"
       y="2055.0444"
       transform="scale(1.0521153,0.95046614)"
       style="line-height:0;letter-spacing:1.42256px;stroke-width:1.05212"><tspan
         x="67.062248"
         y="2065.5654"
         id="tspan6"
         style="stroke-width:1.05212">IMMOBILIE</tspan></text>
    <g
       id="Group_13"
       data-name="Group 13"
       transform="matrix(1.0012373,0,0,0.9999744,79.116673,1898.8176)">
      <g
         id="Group_12"
         data-name="Group 12"
         clip-path="url(#clip-path)">
        <path
           id="Path_18"
           data-name="Path 18"
           d="m 50.84,28.88 v 27.132 a 2.774,2.774 0 0 1 -2.774,2.774 H 42.517 A 2.774,2.774 0 0 1 39.743,56.012 V 50.464 A 5.549,5.549 0 0 0 34.194,44.915 H 28.646 A 5.549,5.549 0 0 0 23.1,50.464 v 5.549 a 2.774,2.774 0 0 1 -2.774,2.774 H 14.774 A 2.774,2.774 0 0 1 12,56.012 V 28.88"
           transform="translate(-3.57,-8.911)"
           fill="none"
           stroke="#8fe83d"
           stroke-linecap="round"
           stroke-linejoin="round"
           stroke-width="2" />
        <path
           id="Path_19"
           data-name="Path 19"
           d="M 4,26.193 25.282,5.531 a 5.2,5.2 0 0 1 7.373,0 l 21.282,20.662"
           transform="translate(-1.119,-1.287)"
           fill="none"
           stroke="#8fe83d"
           stroke-linecap="round"
           stroke-linejoin="round"
           stroke-width="2" />
      </g>
    </g>
  </g>
</svg>
