<?xml version="1.0" encoding="UTF-8" standalone="no"?>
<svg
   width="76"
   height="72"
   viewBox="0 0 76 72"
   version="1.1"
   id="svg14"
   sodipodi:docname="icon1.svg"
   inkscape:version="1.1.2 (b8e25be833, 2022-02-05)"
   xmlns:inkscape="http://www.inkscape.org/namespaces/inkscape"
   xmlns:sodipodi="http://sodipodi.sourceforge.net/DTD/sodipodi-0.dtd"
   xmlns="http://www.w3.org/2000/svg"
   xmlns:svg="http://www.w3.org/2000/svg">
  <sodipodi:namedview
     id="namedview16"
     pagecolor="#ffffff"
     bordercolor="#666666"
     borderopacity="1.0"
     inkscape:pageshadow="2"
     inkscape:pageopacity="0.0"
     inkscape:pagecheckerboard="0"
     showgrid="false"
     inkscape:zoom="11.222222"
     inkscape:cx="38.049506"
     inkscape:cy="50.257427"
     inkscape:window-width="1465"
     inkscape:window-height="1030"
     inkscape:window-x="863"
     inkscape:window-y="108"
     inkscape:window-maximized="0"
     inkscape:current-layer="Group_119" />
  <defs
     id="defs4">
    <clipPath
       id="clip-path">
      <rect
         id="Rectangle_44"
         data-name="Rectangle 44"
         width="56"
         height="52"
         transform="translate(-0.312 0.281)"
         fill="none"
         stroke="#8fe83d"
         stroke-width="1" />
    </clipPath>
  </defs>
  <g
     id="Group_119"
     data-name="Group 119"
     transform="translate(-69 -1896)">
    <text
       id="Immobilie"
       fill="#8fe83d"
       font-size="10px"
       font-family="HelveticaNeueLTPro-Roman, 'Helvetica Neue LT Pro'"
       letter-spacing="0.1em"
       x="106.87129"
       y="1952.0792"><tspan
         x="77.216286"
         y="1962.0792"
         id="tspan6">IMMOBILIE</tspan></text>
    <g
       id="Group_13"
       data-name="Group 13"
       transform="translate(80.312 1895.719)">
      <g
         id="Group_12"
         data-name="Group 12"
         transform="translate(0 0)"
         clip-path="url(#clip-path)">
        <path
           id="Path_18"
           data-name="Path 18"
           d="M50.84,28.88V56.012a2.774,2.774,0,0,1-2.774,2.774H42.517a2.774,2.774,0,0,1-2.774-2.774V50.464a5.549,5.549,0,0,0-5.549-5.549H28.646A5.549,5.549,0,0,0,23.1,50.464v5.549a2.774,2.774,0,0,1-2.774,2.774H14.774A2.774,2.774,0,0,1,12,56.012V28.88"
           transform="translate(-3.57 -8.911)"
           fill="none"
           stroke="#8fe83d"
           stroke-linecap="round"
           stroke-linejoin="round"
           stroke-width="2" />
        <path
           id="Path_19"
           data-name="Path 19"
           d="M4,26.193,25.282,5.531a5.2,5.2,0,0,1,7.373,0L53.937,26.193"
           transform="translate(-1.119 -1.287)"
           fill="none"
           stroke="#8fe83d"
           stroke-linecap="round"
           stroke-linejoin="round"
           stroke-width="2" />
      </g>
    </g>
  </g>
</svg>
